<svg width="21" height="21" viewBox="0 0 21 21" fill="none" xmlns="http://www.w3.org/2000/svg">
<path d="M10.3636 1.72705C7.62105 1.72705 5.39773 3.95036 5.39773 6.69296V9.28387C5.39773 12.0265 7.62105 14.2498 10.3636 14.2498C12.8867 14.2498 14.9703 12.3681 15.2877 9.9316H11.2273C10.8695 9.9316 10.5796 9.6416 10.5796 9.28387C10.5796 8.92614 10.8695 8.63614 11.2273 8.63614L15.3296 8.63614V7.34069H11.2273C10.8695 7.34069 10.5796 7.05069 10.5796 6.69296C10.5796 6.33523 10.8695 6.04523 11.2273 6.04523H15.2877C14.9703 3.60869 12.8867 1.72705 10.3636 1.72705Z" fill="#1C274C"/>
<path fill-rule="evenodd" clip-rule="evenodd" d="M3.45455 7.77251C3.81228 7.77251 4.10228 8.0625 4.10228 8.42023V9.28387C4.10228 12.7419 6.90559 15.5452 10.3636 15.5452C13.8217 15.5452 16.625 12.7419 16.625 9.28387V8.42023C16.625 8.0625 16.915 7.77251 17.2727 7.77251C17.6305 7.77251 17.9205 8.0625 17.9205 8.42023V9.28387C17.9205 13.2392 14.8817 16.4848 11.0114 16.8133V18.7839C11.0114 19.1416 10.7214 19.4316 10.3636 19.4316C10.0059 19.4316 9.71591 19.1416 9.71591 18.7839V16.8133C5.84561 16.4848 2.80682 13.2392 2.80682 9.28387V8.42023C2.80682 8.0625 3.09682 7.77251 3.45455 7.77251Z" fill="#1C274C"/>
</svg>
