<svg width="12" height="12" viewBox="0 0 12 12" fill="none" xmlns="http://www.w3.org/2000/svg">
<path fill-rule="evenodd" clip-rule="evenodd" d="M5.92941 11.9067C9.20414 11.9067 11.8588 9.24131 11.8588 5.95336C11.8588 2.66541 9.20414 0 5.92941 0C2.65469 0 0 2.66541 0 5.95336C0 9.24131 2.65469 11.9067 5.92941 11.9067Z" fill="#262C2D"/>
<path fill-rule="evenodd" clip-rule="evenodd" d="M5.92872 9.67412C7.97543 9.67412 9.63461 8.00824 9.63461 5.95327C9.63461 3.8983 7.97543 2.23242 5.92872 2.23242C3.88202 2.23242 2.22284 3.8983 2.22284 5.95327C2.22284 8.00824 3.88202 9.67412 5.92872 9.67412Z" fill="#121515"/>
<path opacity="0.4" fill-rule="evenodd" clip-rule="evenodd" d="M5.92994 5.20973C6.33947 5.20973 6.67146 4.8764 6.67146 4.46522C6.67146 4.05403 6.33947 3.7207 5.92994 3.7207C5.52041 3.7207 5.18842 4.05403 5.18842 4.46522C5.18842 4.8764 5.52041 5.20973 5.92994 5.20973Z" fill="#636F73"/>
</svg>
