<svg width="88" height="28" viewBox="0 0 88 28" fill="none" xmlns="http://www.w3.org/2000/svg">
<path d="M24.2173 9.84827C23.1358 12.1286 19.5784 14.1223 18.132 13.2753C17.7281 13.0407 17.8845 12.8192 18.8748 12.1937C20.7773 10.9819 21.3636 8.98824 19.813 8.98824C15.4608 8.98824 14.3923 2.8379 18.523 1.56091C23.4746 0.0363475 26.6801 4.70122 24.2173 9.84827Z" fill="#F5ECDE"/>
<path d="M73.2428 26.5898C69.5175 26.5898 67.8936 23.1989 67.8936 20.3333C67.8936 14.9363 73.9114 12.3572 79.4993 10.0647C79.977 9.87368 80.168 9.53936 80.168 9.06176C80.1202 5.71852 79.7382 2.80513 76.2039 2.80513C73.3383 2.80513 73.0517 4.90659 73.0994 7.19909C73.0994 8.34536 72.6219 9.82593 70.9025 9.82593C69.3741 9.82593 68.7532 8.5364 68.7532 7.19909C68.7532 3.95138 72.0488 0.990234 76.968 0.990234C83.6545 0.990234 84.4665 4.23795 84.4665 9.2528V20.9063C84.4665 22.3392 84.8486 23.0556 85.4695 23.0556C85.8037 23.0556 86.1381 22.8645 86.6635 22.387C87.0455 22.0048 87.4276 21.8616 87.7619 22.1481C88.0485 22.387 88.0963 22.769 87.7619 23.1989C86.6635 24.6794 84.8963 26.5421 82.7949 26.5421C81.0277 26.5421 80.4068 25.2048 80.2636 23.772C80.2158 23.1034 79.9292 22.9601 79.4993 23.3421C77.78 24.8705 75.8696 26.5898 73.2428 26.5898ZM72.2398 18.9959C72.2398 21.0974 73.3383 23.3421 75.392 23.3421C76.586 23.3421 77.971 22.578 79.6904 21.1452C80.0247 20.8586 80.168 20.5243 80.168 20.0944V12.7394C80.168 12.1185 79.6427 11.8796 78.8784 12.214C75.1532 13.8855 72.2398 15.5572 72.2398 18.9959Z" fill="#F5ECDE"/>
<path d="M60.1612 4.81167C59.4448 4.81167 58.3463 6.14896 57.2955 8.29819C57.1045 8.68027 57.0567 9.01459 57.0567 9.39668V18.6622C57.0567 22.5785 57.0567 24.2024 59.2059 24.4412C59.7313 24.489 60.0179 24.8233 60.0179 25.3487C60.0179 25.8741 59.6836 26.2084 59.2059 26.2084H50.6568C50.1792 26.2084 49.8449 25.8741 49.8449 25.3487C49.8449 24.8233 50.1315 24.489 50.6568 24.4412C52.806 24.2024 52.806 22.5785 52.806 18.6622V9.77876C52.806 6.38777 52.7583 4.66839 50.7046 5.14599C50.036 5.28928 49.6061 5.19375 49.3673 4.71615C49.1763 4.23854 49.4628 3.80869 50.0837 3.52214L52.8538 2.28036L55.2896 1.22963C56.006 0.895308 57.0567 0.704265 57.0567 1.85052V4.14303C57.0567 4.95495 57.5821 5.09823 58.0598 4.38182C59.3493 2.32812 60.8298 0.990829 62.788 0.990829C64.6507 0.990829 66.4656 2.18484 66.4656 4.09526C66.4656 5.8624 64.8417 6.57881 63.7433 6.57881C61.9761 6.57881 61.0686 4.81167 60.1612 4.81167Z" fill="#F5ECDE"/>
<path d="M37.1749 3.0917C34.1659 3.0917 32.542 5.95733 32.0645 8.44087C31.9211 9.014 32.2555 9.34832 32.8286 9.34832H40.9479C41.5211 9.34832 41.8554 9.014 41.7598 8.48864C41.4732 5.76628 40.1359 3.0917 37.1749 3.0917ZM28.1959 13.981C28.1959 8.34536 30.9182 0.990234 38.3211 0.990234C44.1479 0.990234 46.8702 5.52748 47.1567 10.208C47.2045 10.7811 46.8702 11.0677 46.3448 11.0677H32.7809C32.2555 11.0677 31.9211 11.3542 31.969 11.9274C32.2077 16.3691 34.4047 22.1003 39.8017 22.1003C43.2404 22.1003 44.8165 19.7602 45.8672 17.3243C46.0583 16.8467 46.3926 16.608 46.727 16.7035C47.0612 16.799 47.2046 17.1332 47.109 17.6586C46.2493 21.5272 43.3836 26.5898 37.748 26.5898C31.2525 26.5898 28.1959 19.9512 28.1959 13.981Z" fill="#F5ECDE"/>
<path fill-rule="evenodd" clip-rule="evenodd" d="M12.632 26.4869L14.2543 22.2574C13.8946 21.2359 13.5434 20.1998 13.2715 19.3981C13.0266 18.6757 12.8462 18.1436 12.7823 17.9838L9.1047 8.33614C8.84502 7.64663 8.58869 7.03772 8.36311 6.50183C7.38552 4.1795 6.98529 3.22875 9.39127 3.03472C10.1554 2.98696 10.5375 2.65264 10.5375 2.12727C10.5375 1.6019 10.1077 1.26758 9.39127 1.26758H0.937656C-0.256357 1.26758 -0.351878 2.89143 0.937656 3.13024C1.94063 3.32128 3.23016 4.65858 4.61522 8.33614L11.3017 25.8165C11.4928 26.2463 11.7793 26.4851 12.1614 26.4851C12.3218 26.4851 12.4788 26.4859 12.632 26.4869Z" fill="#F5ECDE"/>
</svg>
