<svg width="88" height="28" viewBox="0 0 88 28" fill="none" xmlns="http://www.w3.org/2000/svg">
<path d="M24.2173 9.84778C23.1358 12.1282 19.5784 14.1218 18.132 13.2749C17.7281 13.0403 17.8845 12.8187 18.8748 12.1932C20.7773 10.9814 21.3636 8.98775 19.813 8.98775C15.4608 8.98775 14.3923 2.83741 18.523 1.56042C23.4746 0.0358592 26.6801 4.70074 24.2173 9.84778Z" fill="black"/>
<path d="M73.2428 26.5898C69.5175 26.5898 67.8936 23.1989 67.8936 20.3333C67.8936 14.9363 73.9114 12.3572 79.4993 10.0647C79.977 9.87368 80.168 9.53936 80.168 9.06176C80.1202 5.71852 79.7382 2.80513 76.2039 2.80513C73.3383 2.80513 73.0517 4.90659 73.0994 7.19909C73.0994 8.34536 72.6219 9.82593 70.9025 9.82593C69.3741 9.82593 68.7532 8.5364 68.7532 7.19909C68.7532 3.95138 72.0488 0.990234 76.968 0.990234C83.6545 0.990234 84.4665 4.23795 84.4665 9.2528V20.9063C84.4665 22.3392 84.8486 23.0556 85.4695 23.0556C85.8037 23.0556 86.1381 22.8645 86.6635 22.387C87.0455 22.0048 87.4276 21.8616 87.7619 22.1481C88.0485 22.387 88.0963 22.769 87.7619 23.1989C86.6635 24.6794 84.8963 26.5421 82.7949 26.5421C81.0277 26.5421 80.4068 25.2048 80.2636 23.772C80.2158 23.1034 79.9292 22.9601 79.4993 23.3421C77.78 24.8705 75.8696 26.5898 73.2428 26.5898ZM72.2398 18.9959C72.2398 21.0974 73.3383 23.3421 75.392 23.3421C76.586 23.3421 77.971 22.578 79.6904 21.1452C80.0247 20.8586 80.168 20.5243 80.168 20.0944V12.7394C80.168 12.1185 79.6427 11.8796 78.8784 12.214C75.1532 13.8855 72.2398 15.5572 72.2398 18.9959Z" fill="black"/>
<path d="M60.1612 4.81118C59.4448 4.81118 58.3463 6.14847 57.2955 8.2977C57.1045 8.67978 57.0567 9.0141 57.0567 9.3962V18.6617C57.0567 22.5781 57.0567 24.2019 59.2059 24.4408C59.7313 24.4886 60.0179 24.8228 60.0179 25.3482C60.0179 25.8736 59.6836 26.2079 59.2059 26.2079H50.6568C50.1792 26.2079 49.8449 25.8736 49.8449 25.3482C49.8449 24.8228 50.1315 24.4886 50.6568 24.4408C52.806 24.2019 52.806 22.5781 52.806 18.6617V9.77827C52.806 6.38728 52.7583 4.6679 50.7046 5.14551C50.036 5.28879 49.6061 5.19326 49.3673 4.71566C49.1763 4.23805 49.4628 3.80821 50.0837 3.52165L52.8538 2.27988L55.2896 1.22914C56.006 0.89482 57.0567 0.703776 57.0567 1.85003V4.14254C57.0567 4.95447 57.5821 5.09774 58.0598 4.38134C59.3493 2.32763 60.8298 0.990341 62.788 0.990341C64.6507 0.990341 66.4656 2.18435 66.4656 4.09477C66.4656 5.86191 64.8417 6.57832 63.7433 6.57832C61.9761 6.57832 61.0686 4.81118 60.1612 4.81118Z" fill="black"/>
<path d="M37.1749 3.0917C34.1659 3.0917 32.542 5.95733 32.0645 8.44087C31.9211 9.014 32.2555 9.34832 32.8286 9.34832H40.9479C41.5211 9.34832 41.8554 9.014 41.7598 8.48864C41.4732 5.76628 40.1359 3.0917 37.1749 3.0917ZM28.1959 13.981C28.1959 8.34536 30.9182 0.990234 38.3211 0.990234C44.1479 0.990234 46.8702 5.52748 47.1567 10.208C47.2045 10.7811 46.8702 11.0677 46.3448 11.0677H32.7809C32.2555 11.0677 31.9211 11.3542 31.969 11.9274C32.2077 16.3691 34.4047 22.1003 39.8017 22.1003C43.2404 22.1003 44.8165 19.7602 45.8672 17.3243C46.0583 16.8467 46.3926 16.608 46.727 16.7035C47.0612 16.799 47.2046 17.1332 47.109 17.6586C46.2493 21.5272 43.3836 26.5898 37.748 26.5898C31.2525 26.5898 28.1959 19.9512 28.1959 13.981Z" fill="black"/>
<path fill-rule="evenodd" clip-rule="evenodd" d="M12.632 26.4864L14.2543 22.2569C13.8946 21.2354 13.5434 20.1993 13.2715 19.3976C13.0266 18.6752 12.8462 18.1431 12.7823 17.9833L9.1047 8.33565C8.84502 7.64614 8.58869 7.03724 8.36311 6.50135C7.38552 4.17901 6.98529 3.22826 9.39127 3.03423C10.1554 2.98647 10.5375 2.65215 10.5375 2.12679C10.5375 1.60141 10.1077 1.26709 9.39127 1.26709H0.937656C-0.256357 1.26709 -0.351878 2.89095 0.937656 3.12975C1.94063 3.32079 3.23016 4.65809 4.61522 8.33565L11.3017 25.816C11.4928 26.2458 11.7793 26.4846 12.1614 26.4846C12.3218 26.4846 12.4788 26.4854 12.632 26.4864Z" fill="black"/>
</svg>
