<svg width="25" height="25" viewBox="0 0 25 25" fill="none" xmlns="http://www.w3.org/2000/svg">
<path fill-rule="evenodd" clip-rule="evenodd" d="M13.5985 20.6469C13.7701 20.6321 13.9154 20.5137 13.963 20.3482L14.6718 18.5487C14.8424 17.9558 14.6632 18.1509 14.4137 17.5866C14.2845 17.2943 14.1635 17.0183 14.0582 16.778C13.872 16.3531 13.7348 16.0401 13.6877 15.9466L10.954 10.739C10.7605 10.3348 10.5733 9.97919 10.4085 9.66624C9.69454 8.31007 9.40222 7.75486 10.8502 7.51136C11.3108 7.44242 11.5249 7.21982 11.4974 6.90145C11.4699 6.58308 11.1919 6.40297 10.7577 6.44047L5.63438 6.88291C4.91074 6.94541 4.93783 7.93446 5.73186 8.01169C6.34971 8.07496 7.20123 8.81788 8.23311 10.974L13.0425 20.2867C13.1808 20.5371 13.3669 20.6669 13.5985 20.6469Z" fill="black"/>
<path d="M18.9196 11.42C19.1723 11.1271 19.8639 10.0591 19.8448 9.20958C19.8448 7.2721 18.2094 5.8687 16.2796 5.91211C14.3499 5.95553 12.8174 7.62223 12.8566 9.3668C12.8959 11.1114 14.4921 12.4904 16.4218 12.447C16.4896 12.4455 16.5569 12.4422 16.6236 12.4373C16.6092 12.5027 16.5929 12.5705 16.5747 12.6407C16.465 13.0636 16.0574 14.0358 16.023 14.131C15.8375 14.5337 16.3796 14.8698 16.6578 14.5245L18.9196 11.42Z" fill="black"/>
</svg>
